<svg id="Layer_1" data-name="Layer 1" xmlns="http://www.w3.org/2000/svg" viewBox="0 0 500 500"><defs><style>.cls-1{fill:#fff;stroke:#e52421;stroke-miterlimit:10;stroke-width:5px;}</style></defs><path class="cls-1" d="M214.33,175.46c-10.19,4.42-21.79,11-21.81,19.09-.05,12.55,27.86,18.29,27.26,30-.61,12.06-30.78,16.94-30,25.91.72,8.19,26.31,9.08,27.27,17.72,1,9.26-27.62,14.66-28.63,27.27-.72,8.91,12.68,17.6,27.26,24.54"/><path class="cls-1" d="M307.11,175.46c-5.46,5.95-11.22,13.86-8.86,19.73,3.67,9.13,23.87,5.8,26.92,14.46,3.15,8.92-15.44,20.58-12.28,26.88,2.89,5.76,20.14-.47,23.31,5.55,3.41,6.45-14,18.08-11,27.51,2.15,6.66,13.6,9.38,25.32,10.5"/></svg>