<svg id="Layer_1" data-name="Layer 1" xmlns="http://www.w3.org/2000/svg" viewBox="0 0 500 500"><defs><style>.cls-1{fill:#fff;stroke:#e52421;stroke-miterlimit:10;stroke-width:6px;}</style></defs><path class="cls-1" d="M357.85,350.9c1.75-8.61,16.92-88-27.62-124.29-20.4-16.6-49.61-16.29-108-15.71-55.8.57-83.7.85-103.19,17.82C80.19,262.51,92,329.48,93.92,339.44a25.54,25.54,0,0,1-9.64-1.62c-19-7.29-28.23-38.95-25.7-78.46h0C55.24,197.18,85.3,145,125.72,142.85c10.91-10.32,36.78-31.86,76.12-39.14,62.71-11.6,110.5,22.14,119.37,28.66,9.39,2,36.11,6.33,53.51,30.2,14.33,19.66,24,47.37,25.7,78.46h0c1.49,13.38,3.36,47.54-17.16,80.75A119.52,119.52,0,0,1,357.85,350.9Z"/></svg>