<svg id="Layer_1" data-name="Layer 1" xmlns="http://www.w3.org/2000/svg" viewBox="0 0 500 500"><defs><style>.cls-1{fill:#fff;stroke:#e52421;stroke-miterlimit:10;stroke-width:6px;}</style></defs><path class="cls-1" d="M378.6,363.55v-60.1c.43-5.38,2.74-41.27-23.69-65.66a73.2,73.2,0,0,0-30.81-16.74c5-3.19,11.27-8.41,14.55-16.6C341.51,197.3,340,193,343,191.27c7.54-4.32,28.21,16.16,27.81,16.68a6.7,6.7,0,0,1-2-1.1c.47.26,1.14.57,2,1.1a49.49,49.49,0,0,1,28.85,10.32c13.68,10.51,19,25.34,21.64,32.59C438,297.1,403,352.71,400.73,356.14c-2.06.38-4.23.86-6.48,1.46A82.76,82.76,0,0,0,378.6,363.55Z"/><path class="cls-1" d="M131.47,142.16c33.43-28.73,90.21-9.36,96.45-5.38l44.9,28.69c6.13-3.88,27.94-16.6,56.6-11.58,23.93,4.19,39.25,18.4,44.84,24.14,3.2,3.29,17.53,22.15,11.34,33.88-3,5.58-10.68,9.75-61.5,9.14-22.42-.27-41.19-1.33-54.78-2.32H232.56c-28.12-2.52-64.86-1-85.31,22.49-12.73,14.65-12.45,30.12-17.27,29.89C118.37,270.55,87.91,179.6,131.47,142.16Z"/></svg>