<svg id="Layer_1" data-name="Layer 1" xmlns="http://www.w3.org/2000/svg" viewBox="0 0 500 500"><defs><style>.cls-1{fill:#fff;stroke:#e52421;stroke-miterlimit:10;stroke-width:6px;}</style></defs><path class="cls-1" d="M343.7,52.86h-169a72.77,72.77,0,0,0-72.78,72.78V409.18A72.78,72.78,0,0,0,174.69,482h169a72.78,72.78,0,0,0,72.78-72.79V125.64A72.77,72.77,0,0,0,343.7,52.86Zm39.62,340.35A72.78,72.78,0,0,1,310.54,466H208a72.79,72.79,0,0,1-72.79-72.79V232A72.79,72.79,0,0,1,208,159.23H310.54A72.78,72.78,0,0,1,383.32,232Z"/></svg>