<svg id="Layer_1" data-name="Layer 1" xmlns="http://www.w3.org/2000/svg" viewBox="0 0 500 500"><defs><style>.cls-1{fill:#e52421;}</style></defs><path class="cls-1" d="M258.25,246.24A24.79,24.79,0,0,0,269,258.87a39.45,39.45,0,0,0,16.25,4.87,59.7,59.7,0,0,0,17.44-.94c7.58-1.48,14.94-3.92,22.5-5.53,8.24-1.75,16.77-2.49,24.85.39a3,3,0,0,0,3.69-2.09,3.07,3.07,0,0,0-2.1-3.69c-14.82-5.28-30.44.23-44.95,3.85a62,62,0,0,1-17,2.27c-1.37,0-2.74-.09-4.11-.22a30.8,30.8,0,0,1-3.54-.51,39.27,39.27,0,0,1-3.85-.94c-.6-.18-1.19-.37-1.78-.58l-.87-.32-.43-.17c.3.12,0,0-.13-.06a22.3,22.3,0,0,1-6.68-4.31c-.49-.47-1-1-1.41-1.49-.09-.11-.61-.77-.36-.43-.2-.27-.4-.56-.59-.84-.39-.59-.75-1.19-1.08-1.81-.17-.31-.32-.63-.47-1l-.1-.21c.09.21-.21-.52-.2-.51a3.08,3.08,0,0,0-3.69-2.09,3,3,0,0,0-2.1,3.69Z"/><path class="cls-1" d="M236,233.63a9.28,9.28,0,0,1-.56,1.28q-.43.87-1,1.71c-.16.25-.32.5-.49.74l-.38.53c-.12.16-.76.9-1.1,1.26s-.82.84-1.25,1.23c-.22.19-.44.39-.67.57l-.34.28c-.39.31.31-.22-.09.07a26.39,26.39,0,0,1-3.28,2,28.66,28.66,0,0,1-6.81,2.48,37.72,37.72,0,0,1-7.53,1.1,56.07,56.07,0,0,1-16.27-1.5c-7.43-1.73-14.73-4-22.23-5.43-8.49-1.6-17.33-2.06-25.59.88a3.07,3.07,0,0,0-2.1,3.69,3,3,0,0,0,3.69,2.09c14.79-5.26,30.4,1.28,44.86,4.6,11.24,2.59,23.92,2.8,34.47-2.46a25.07,25.07,0,0,0,12.42-13.56,3,3,0,0,0-2.1-3.69,3.06,3.06,0,0,0-3.69,2.09Z"/></svg>