<svg id="Layer_1" data-name="Layer 1" xmlns="http://www.w3.org/2000/svg" viewBox="0 0 500 500"><defs><style>.cls-1{fill:#fff;}.cls-1,.cls-2{stroke:#e52421;stroke-miterlimit:10;stroke-width:6px;}.cls-2{fill:none;}</style></defs><path class="cls-1" d="M304.86,458.27a92.7,92.7,0,0,1-98.35-3.16A164.21,164.21,0,0,1,141,353.84V141.13a143.43,143.43,0,0,1,19.65-51.27C193.53,38,248.92,30.33,256.33,29.44c0,0,69.06-8.27,127.21,60.42a90.18,90.18,0,0,1,16.62,29.71,77.88,77.88,0,0,1,3,21.56V353.84a124.83,124.83,0,0,1-19.64,51.27C357.17,444.39,316.22,455.57,304.86,458.27Z"/><path class="cls-1" d="M307,411.54v3.36a32.87,32.87,0,0,1-32.87,32.87H227.81a32.87,32.87,0,0,1-32.87-32.87v-3.36"/><line class="cls-2" x1="246" y1="445.43" x2="246" y2="428.29"/></svg>