<svg id="Layer_1" data-name="Layer 1" xmlns="http://www.w3.org/2000/svg" viewBox="0 0 500 500"><defs><style>.cls-1{fill:none;}.cls-1,.cls-2{stroke:#e52421;stroke-miterlimit:10;stroke-width:6px;}.cls-2{fill:#fff;}</style></defs><path class="cls-1" d="M252.77,326.07c-1.81-5.55-.22-10.08,3.2-11.29,2.45-.87,5.35.15,6,.38,5.83,2,4.64,6.81,9.72,9.74,4.44,2.57,12.12,2.84,16.38.39,5.86-3.37,3.33-10.79,7.67-11.69,2.66-.55,5.52,1.82,6.14,2.34,4.62,3.82,2.18,9.46,2.05,9.74"/><path class="cls-2" d="M269.28,250.52a57.35,57.35,0,0,1-6.84,32.34,64.41,64.41,0,0,1-7.95,11.4l-15.16,10.93a15.3,15.3,0,0,0-3,10.94c.91,6.93,6.69,11,8,11.84"/><path class="cls-2" d="M287.51,251.25a57.32,57.32,0,0,0,6.84,32.33A63.68,63.68,0,0,0,302.3,295l15.16,10.94a15.25,15.25,0,0,1,3,10.93c-.91,6.94-6.69,11-8,11.85"/><path class="cls-2" d="M285,301c1,.59,8,4.87,8,12,0,6.41-5.77,10.44-6.83,11.16"/><path class="cls-2" d="M271.4,300.27c-1,.59-8,4.87-8,12,0,6.41,5.76,10.44,6.83,11.16"/></svg>