<svg id="Layer_1" data-name="Layer 1" xmlns="http://www.w3.org/2000/svg" viewBox="0 0 500 500"><defs><style>.cls-1{fill:#e52421;}</style></defs><path class="cls-1" d="M214.48,195.58c6.71,8.15,16.11,13.29,24.8,19,7.55,5,15.64,11.34,18.8,20,1.88,5.19,1.48,10.52.71,15.89s-1.54,10.66-.6,16.08A18.62,18.62,0,0,0,265,278.55c4.47,3.38,10.35,3.48,15.7,3.92,6.59.54,13.26.81,19.81,1.66,2.58.34,5.43.95,7.53,2.57a8.36,8.36,0,0,1,2.17,2.57,4.77,4.77,0,0,1,.63,2.65,3.11,3.11,0,0,0,2.09,3.69c1.41.38,3.47-.48,3.69-2.1.8-5.72-2.61-10.9-7.79-13.26-5.46-2.49-11.77-2.44-17.65-2.93l-9.26-.75a81,81,0,0,1-8.08-.8,12.22,12.22,0,0,1-6-2.59,11.69,11.69,0,0,1-3-4.78c-1.53-4.47-1.26-9.1-.59-13.9.83-6.08,1.88-12.11.57-18.2-2.21-10.19-10.1-18-18.22-24-9.41-6.87-20.32-11.86-27.87-21a3,3,0,0,0-4.24,0,3.07,3.07,0,0,0,0,4.24Z"/><path class="cls-1" d="M242.36,189.2c-5.51,9.31-1.65,21.06,5.27,28.48,7.52,8.06,18,12.09,26.89,18.34a34.22,34.22,0,0,1,10.09,10.35c2.82,4.83,3.26,10.36,3.25,15.84,0,6.23-.23,12.46-.35,18.69-.05,3,0,6.08,1.57,8.7a11.26,11.26,0,0,0,6.08,4.65,27.37,27.37,0,0,0,8,1.22q5.42.24,10.84.35,10.83.23,21.68-.08c3.85-.11,3.87-6.11,0-6q-9.24.25-18.48.14c-3,0-6.08-.12-9.12-.22-2.73-.09-5.51-.08-8.23-.43a11,11,0,0,1-4.71-1.62c-1.59-1.31-1.71-3.45-1.69-5.62,0-6.06.26-12.12.34-18.18.08-5.71-.14-11.62-2.35-17a33,33,0,0,0-8.95-12.1c-7.88-6.9-17.76-10.72-26-17.07-4.07-3.13-7.69-7.07-9.48-11.88-1.71-4.58-2-9.37.49-13.56,2-3.34-3.22-6.36-5.18-3Z"/></svg>