<svg id="Layer_1" data-name="Layer 1" xmlns="http://www.w3.org/2000/svg" viewBox="0 0 500 500"><defs><style>.cls-1{fill:#fff;stroke:#e52421;stroke-miterlimit:10;stroke-width:6px;}</style></defs><path class="cls-1" d="M321.41,225.28c.75-1.47-6.32-3.67-21.32-14.74-3.7-2.74-6.13-4.72-10-4.91-5.79-.29-7.49,3.9-14,3.93-5.6,0-6.89-3.1-12.63-2.95-4.41.11-7.64,2.06-10.09,3.57-19.7,12.12-29.88,18.39-28.66,20.15,1.68,2.42,19.69-11.32,47.59-12.62C299.74,216.43,320.08,227.9,321.41,225.28Z"/><path class="cls-1" d="M246.06,235.17c1.38.47,11.33,3.79,27.9,4,15,.15,24.44-2.39,26.13-2.86"/></svg>