<svg id="Layer_1" data-name="Layer 1" xmlns="http://www.w3.org/2000/svg" viewBox="0 0 500 500"><defs><style>.cls-1{fill:#fff;}.cls-1,.cls-2{stroke:#e52421;stroke-miterlimit:10;stroke-width:6px;}.cls-2{fill:none;}</style></defs><path class="cls-1" d="M403,313.52s3.75,59.31-16.6,87.18c-15.24,20.86-39.64,33.09-42.49,34.54A120.61,120.61,0,0,1,305.68,448c-22.53,3.43-40.33-.52-52.27-3.28-19.56-4.54-32.67-11.37-46-18.33-17.06-8.89-32-16.47-44.8-30.79-6.26-7-14.53-18.25-22.14-41.17-15.54-46.85-10.63-89.2-7.53-115.93,2.41-20.76,2.62-36.67,7.47-58.06,6.66-29.38,11.41-50.31,26.35-68.92,24.6-30.64,62.35-36.94,79.66-39.83,12.15-2,80.57-12,127.15,33.7,5.37,5.27,23.12,23.09,31.13,51.22C417.45,201.49,403,243.26,403,313.52Z"/><path class="cls-1" d="M344.29,422.53v6.75a32.87,32.87,0,0,1-32.87,32.87H270.6a32.87,32.87,0,0,1-32.86-32.87v-6.75"/><line class="cls-2" x1="291.66" y1="463.49" x2="291.66" y2="436.87"/></svg>