<svg id="Layer_1" data-name="Layer 1" xmlns="http://www.w3.org/2000/svg" viewBox="0 0 500 500"><defs><style>.cls-1{fill:none;}.cls-1,.cls-2{stroke:#e52421;stroke-miterlimit:10;stroke-width:6px;}.cls-2{fill:#fff;}</style></defs><path class="cls-1" d="M214.89,334.31c-1.66-5.51-.2-10,3-11.21,2.26-.86,4.93.15,5.54.38,5.36,2,4.27,6.76,9,9.67,4.09,2.55,11.16,2.82,15.08.39,5.39-3.35,3.07-10.72,7.07-11.61,2.44-.55,5.07,1.8,5.65,2.32,4.25,3.79,2,9.4,1.89,9.68"/><path class="cls-2" d="M230.77,253.19a68.33,68.33,0,0,1-6.29,34.2,70.7,70.7,0,0,1-7.32,12.05l-14,11.56a17.84,17.84,0,0,0-2.79,11.56,19.05,19.05,0,0,0,7.33,12.53"/><path class="cls-2" d="M247.56,253.19a68.47,68.47,0,0,0,6.3,34.2,69.44,69.44,0,0,0,7.32,12.05l14,11.56a17.77,17.77,0,0,1,2.8,11.56,19.09,19.09,0,0,1-7.33,12.53"/></svg>